<?xml version="1.0" standalone="no"?>
<!DOCTYPE svg PUBLIC "-//W3C//DTD SVG 20010904//EN"
 "http://www.w3.org/TR/2001/REC-SVG-20010904/DTD/svg10.dtd">
<svg version="1.0" xmlns="http://www.w3.org/2000/svg"
 width="212.000000pt" height="212.000000pt" viewBox="0 0 212.000000 212.000000"
 preserveAspectRatio="xMidYMid meet">
<metadata>
Created by potrace 1.14, written by Peter Selinger 2001-2017
</metadata>
<g transform="translate(0.000000,212.000000) scale(0.100000,-0.100000)"
fill="#000000" stroke="none">
<path d="M766 1926 c-126 -68 -233 -131 -239 -141 -5 -10 -7 -56 -5 -102 4
-82 4 -85 -19 -94 -13 -5 -59 -29 -103 -55 -57 -33 -82 -53 -86 -71 -8 -32 3
-219 22 -356 8 -59 12 -112 9 -117 -3 -6 -15 -10 -25 -10 -33 0 -50 -38 -50
-115 0 -63 3 -74 25 -95 36 -34 36 -107 -1 -141 l-26 -24 4 -150 c3 -158 11
-188 53 -202 11 -4 99 -6 196 -4 l176 3 16 -26 c23 -34 130 -109 211 -147 54
-25 76 -30 112 -26 82 9 178 66 318 190 l55 48 30 -22 c39 -29 102 -29 141 0
35 26 34 26 68 1 47 -34 118 -31 156 7 24 24 27 34 27 97 1 39 3 107 6 151 l5
80 -36 30 c-32 27 -38 42 -72 170 -43 162 -44 176 -21 355 9 74 17 176 17 227
0 92 0 92 -32 114 -17 13 -66 42 -107 64 -51 28 -74 46 -71 56 2 8 5 45 6 83
2 59 -1 72 -19 90 -32 32 -460 256 -488 256 -13 -1 -127 -56 -253 -124z m467
-96 l197 -105 -199 -3 c-110 -1 -293 -1 -408 0 l-208 3 200 107 c110 59 205
106 210 105 6 -1 99 -49 208 -107z m207 -175 c0 -22 -4 -25 -35 -25 l-35 0 2
-217 c3 -185 5 -218 18 -219 8 -1 23 -2 33 -3 10 -1 17 -9 17 -21 0 -20 -7
-20 -415 -20 -408 0 -415 0 -415 20 0 12 7 20 18 21 9 1 24 2 32 3 13 1 15 32
15 216 l0 215 -32 3 c-27 3 -33 8 -33 27 l0 24 415 1 415 0 0 -25z m-810 -154
c0 -26 -8 -33 -77 -69 l-78 -39 3 -79 c4 -83 26 -270 37 -316 7 -26 5 -28 -23
-28 -21 0 -32 6 -36 18 -11 39 -26 144 -36 257 -16 198 -25 175 90 234 56 28
105 51 110 51 6 0 10 -13 10 -29z m856 3 c33 -14 78 -38 101 -52 l43 -27 0
-70 c0 -75 -13 -207 -31 -317 -11 -67 -11 -68 -41 -68 -30 0 -30 1 -24 38 16
94 37 304 34 344 -3 43 -3 43 -76 80 -41 20 -76 39 -79 42 -5 5 4 56 11 56 2
0 30 -12 62 -26z m-856 -209 c0 -48 -2 -55 -20 -55 -17 0 -20 7 -20 45 0 31 5
47 18 54 9 6 18 11 20 11 1 0 2 -25 2 -55z m828 -10 c-2 -29 -8 -41 -20 -43
-15 -3 -18 5 -18 52 0 54 1 56 20 44 16 -10 20 -22 18 -53z m-18 -200 l0 -25
-414 0 c-401 0 -414 1 -419 19 -3 11 -2 22 1 25 3 3 191 6 419 6 l413 0 0 -25z
m-20 -95 c0 -20 -7 -20 -395 -20 -388 0 -395 0 -395 20 0 20 7 20 395 20 388
0 395 0 395 -20z m-827 -127 c16 -29 32 -53 36 -53 5 0 21 25 37 55 l29 55 93
0 92 0 0 -43 c0 -34 -4 -44 -22 -52 -21 -9 -23 -17 -25 -108 -1 -95 -1 -98 23
-107 20 -8 24 -16 24 -55 l0 -45 -111 0 -110 0 3 48 c3 43 5 47 31 50 26 3 27
5 27 68 0 35 -2 64 -4 64 -3 0 -19 -25 -36 -56 -28 -47 -36 -55 -58 -52 -19 2
-34 17 -59 58 l-33 55 0 -66 c0 -66 0 -67 31 -73 29 -5 30 -8 27 -48 l-3 -43
-107 -3 -108 -3 0 47 c0 37 4 47 20 51 18 5 20 14 20 108 0 95 -2 104 -20 110
-16 5 -20 15 -20 51 l0 45 98 -3 97 -3 28 -52z m630 26 c31 -26 37 -37 37 -70
l0 -39 -54 0 c-45 0 -54 3 -59 20 -4 16 -14 20 -46 20 -28 0 -44 -5 -48 -15
-8 -23 -2 -26 76 -41 46 -8 83 -22 106 -40 33 -25 35 -30 35 -84 0 -56 -1 -59
-44 -94 -43 -35 -46 -36 -131 -36 -83 0 -88 1 -125 33 -35 28 -40 37 -40 75
l0 42 54 0 c48 0 54 -2 60 -24 5 -20 11 -23 46 -22 43 2 70 20 54 36 -5 5 -42
16 -81 23 -44 8 -82 23 -101 38 -28 22 -31 29 -31 85 -1 59 1 64 34 93 34 30
39 31 128 31 88 0 94 -1 130 -31z m422 -99 c17 -69 34 -137 38 -151 4 -17 16
-29 32 -33 22 -6 25 -12 25 -51 l0 -45 -105 0 -105 0 0 45 c0 31 5 47 17 53
30 17 8 42 -37 42 -46 0 -64 -23 -36 -43 13 -9 17 -24 14 -52 l-3 -40 -87 -3
-88 -3 0 46 c0 38 4 47 22 54 16 6 28 29 49 102 34 113 34 106 9 114 -16 5
-20 15 -20 51 l0 45 122 -3 122 -3 31 -125z m-738 -378 c8 -35 -8 -56 -46 -60
-31 -3 -31 -3 -31 42 0 47 8 55 47 48 15 -3 26 -14 30 -30z m413 26 c0 -5 -11
-8 -25 -8 -14 0 -25 -4 -25 -10 0 -5 9 -10 19 -10 11 0 23 -4 26 -10 4 -6 -5
-10 -19 -10 -14 0 -26 -4 -26 -10 0 -5 11 -10 25 -10 14 0 25 -4 25 -10 0 -5
-16 -10 -35 -10 -35 0 -35 0 -35 44 0 26 5 46 13 49 19 6 57 3 57 -5z m195 2
c4 -6 -5 -10 -19 -10 -14 0 -26 -4 -26 -10 0 -5 6 -10 13 -10 24 0 48 -25 41
-43 -7 -19 -59 -24 -69 -6 -4 6 3 9 21 7 15 -2 29 3 31 10 3 7 -4 12 -15 12
-29 0 -48 26 -32 45 14 17 46 20 55 5z m202 3 c14 -6 11 -9 -17 -14 l-35 -6
33 -13 c25 -9 32 -17 30 -34 -2 -16 -10 -21 -32 -21 -16 0 -31 6 -34 13 -3 11
-1 11 17 1 16 -11 23 -11 33 -1 9 9 5 14 -20 23 -19 7 -32 18 -32 28 0 31 20
39 57 24z m-1304 -20 c18 -17 19 -17 28 0 19 34 39 20 39 -28 0 -25 -4 -45
-10 -45 -5 0 -10 14 -10 32 0 30 0 31 -20 13 -18 -16 -20 -16 -26 -1 -10 26
-22 19 -27 -16 -3 -25 -4 -22 -5 15 -2 52 2 56 31 30z m269 -25 c10 -23 15
-44 12 -47 -4 -3 -9 0 -11 7 -3 6 -17 12 -33 12 -16 0 -30 -6 -33 -12 -2 -7
-7 -11 -9 -8 -9 9 31 90 44 90 7 0 21 -19 30 -42z m397 16 l21 -27 0 27 c0 14
5 26 10 26 6 0 10 -21 10 -47 l-1 -48 -29 33 -30 32 0 -30 c0 -16 -4 -30 -10
-30 -5 0 -10 20 -10 45 0 51 10 56 39 19z m-153 -144 c75 -47 102 -48 179 -6
46 25 78 36 107 36 l42 0 -30 -31 c-31 -32 -174 -109 -204 -109 -27 0 -151 66
-195 104 l-40 35 47 1 c36 0 59 -7 94 -30z"/>
<path d="M812 1413 l3 -218 70 0 70 0 0 215 0 215 -73 3 -72 3 2 -218z"/>
<path d="M1092 1413 l3 -218 70 0 70 0 0 215 0 215 -73 3 -72 3 2 -218z"/>
<path d="M1496 768 c-10 -38 -7 -48 15 -48 18 0 20 4 14 28 -9 39 -21 47 -29
20z"/>
<path d="M847 423 c-4 -3 -7 -17 -7 -30 0 -18 6 -23 24 -23 13 0 27 7 30 16
11 28 -27 57 -47 37z"/>
<path d="M644 407 c-8 -21 2 -35 16 -21 5 5 6 15 0 24 -8 12 -10 12 -16 -3z"/>
</g>
</svg>
