<?xml version="1.0" standalone="no"?>
<!DOCTYPE svg PUBLIC "-//W3C//DTD SVG 20010904//EN"
 "http://www.w3.org/TR/2001/REC-SVG-20010904/DTD/svg10.dtd">
<svg version="1.0" xmlns="http://www.w3.org/2000/svg"
 width="212.000000pt" height="212.000000pt" viewBox="0 0 212.000000 212.000000"
 preserveAspectRatio="xMidYMid meet">
<metadata>
Created by potrace 1.14, written by Peter Selinger 2001-2017
</metadata>
<g transform="translate(0.000000,212.000000) scale(0.100000,-0.100000)"
fill="#000000" stroke="none">
<path d="M770 1929 c-123 -66 -231 -125 -238 -132 -10 -8 -13 -34 -10 -102 l3
-92 -83 -44 c-46 -24 -95 -54 -109 -67 l-26 -24 7 -126 c4 -70 13 -176 21
-237 15 -111 12 -124 -21 -125 -29 0 -44 -37 -44 -112 0 -62 3 -78 20 -93 29
-26 29 -123 0 -148 -18 -15 -20 -29 -20 -155 0 -230 2 -233 246 -224 l163 5
53 -48 c104 -94 221 -155 297 -155 56 0 187 70 269 143 122 110 105 101 137
75 39 -30 115 -31 148 0 27 26 40 27 57 8 21 -27 75 -38 119 -26 64 17 72 36
77 208 l5 150 -33 25 c-28 23 -36 41 -71 169 -22 79 -40 159 -40 178 -1 19 7
96 16 170 9 74 17 176 19 227 3 111 3 111 -121 176 l-89 47 5 80 c5 62 2 84
-10 103 -20 31 -460 267 -496 267 -14 0 -127 -55 -251 -121z m455 -96 l203
-108 -198 -3 c-109 -1 -292 -1 -406 0 l-208 3 200 107 c109 59 201 107 202
107 2 1 95 -47 207 -106z m215 -184 c0 -15 -7 -19 -35 -19 l-35 0 0 -220 0
-220 35 0 c28 0 35 -4 35 -20 0 -20 -7 -20 -415 -20 -404 0 -415 1 -415 19 0
15 8 21 33 23 l32 3 3 218 2 217 -35 0 c-28 0 -35 4 -35 20 0 19 8 20 393 22
215 2 402 1 415 -1 14 -2 22 -10 22 -22z m-813 -156 c-3 -10 -5 -4 -5 12 0 17
2 24 5 18 2 -7 2 -21 0 -30z m860 4 c12 5 14 3 8 -7 -6 -10 -4 -12 8 -7 9 3
18 -1 21 -10 4 -8 13 -13 21 -9 8 3 17 0 21 -6 5 -7 2 -8 -7 -4 -8 4 -6 1 4
-8 11 -8 25 -12 31 -10 7 3 19 -3 27 -12 13 -16 12 -16 -7 -6 -21 11 -21 9
-28 -106 -11 -173 -15 -219 -26 -265 -13 -57 -12 -67 4 -67 8 0 17 10 19 23 4
19 4 18 6 -5 1 -25 -3 -28 -30 -28 -30 0 -31 1 -25 36 17 89 36 255 36 319 l0
71 -75 37 c-69 34 -75 39 -75 68 l0 30 26 -20 c14 -11 32 -17 41 -14z m-895
-12 c-2 -19 -8 -32 -13 -29 -5 3 -9 0 -9 -6 0 -7 -6 -10 -12 -7 -7 2 -19 -3
-26 -12 -8 -9 -10 -10 -7 -3 6 11 3 12 -14 3 -11 -7 -21 -17 -21 -22 0 -6 -6
-9 -14 -6 -8 3 -22 0 -31 -7 -16 -11 -16 -23 -6 -132 23 -247 29 -276 61 -285
23 -6 22 -7 -7 -8 -30 -1 -32 1 -42 52 -12 57 -26 186 -36 314 l-6 82 42 27
c31 19 133 72 144 74 1 0 -1 -16 -3 -35z m-125 -107 c-3 -8 -6 -5 -6 6 -1 11
2 17 5 13 3 -3 4 -12 1 -19z m1160 -25 c-3 -10 -5 -2 -5 17 0 19 2 27 5 18 2
-10 2 -26 0 -35z m-997 -28 c0 -8 -4 -15 -8 -15 -5 0 -9 7 -9 15 0 8 4 15 9
15 4 0 8 -7 8 -15z m830 -6 c0 -4 -6 -11 -12 -15 -7 -4 -10 -4 -6 1 4 4 0 14
-10 21 -15 12 -15 12 6 7 12 -3 22 -9 22 -14z m-13 -59 c1 -11 -4 -20 -13 -20
-17 0 -19 26 -1 33 6 3 12 6 12 6 1 1 1 -8 2 -19z m-970 -32 c-3 -8 -6 -5 -6
6 -1 11 2 17 5 13 3 -3 4 -12 1 -19z m150 16 c-3 -3 -12 -4 -19 -1 -8 3 -5 6
6 6 11 1 17 -2 13 -5z m985 -36 c-6 -6 -7 0 -4 19 5 21 7 23 10 9 2 -10 0 -22
-6 -28z m-5 -85 c-3 -10 -5 -4 -5 12 0 17 2 24 5 18 2 -7 2 -21 0 -30z m-167
-43 c0 -20 -7 -20 -415 -20 -408 0 -415 0 -415 20 0 20 7 20 415 20 408 0 415
0 415 -20z m-933 -82 c-3 -8 -6 -5 -6 6 -1 11 2 17 5 13 3 -3 4 -12 1 -19z
m150 6 c-3 -3 -12 -4 -19 -1 -8 3 -5 6 6 6 11 1 17 -2 13 -5z m561 -1 c-98 -2
-258 -2 -355 0 -98 1 -18 2 177 2 195 0 275 -1 178 -2z m202 -3 c0 -5 -4 -10
-10 -10 -5 0 -10 5 -10 10 0 6 5 10 10 10 6 0 10 -4 10 -10z m-409 -28 c-201
-1 -368 1 -372 5 -5 5 159 6 364 3 l372 -5 -364 -3z m396 2 c-3 -3 -12 -4 -19
-1 -8 3 -5 6 6 6 11 1 17 -2 13 -5z m-811 -118 l32 -59 19 31 c10 17 26 45 35
61 l17 31 91 0 90 0 0 -44 c0 -38 -3 -45 -25 -50 -25 -6 -25 -8 -25 -106 0
-98 1 -101 25 -112 23 -10 26 -17 23 -52 l-3 -41 -105 0 -105 0 -3 43 c-3 40
-2 43 27 48 31 6 31 7 31 70 0 35 -2 64 -4 64 -3 0 -19 -25 -36 -56 -28 -47
-36 -55 -58 -52 -19 2 -34 17 -59 58 l-33 55 0 -67 c0 -61 2 -67 23 -70 19 -3
22 -10 25 -50 l3 -48 -105 0 -106 0 0 46 c0 37 4 47 20 51 18 5 20 14 20 108
0 95 -2 104 -20 110 -16 5 -20 15 -20 51 l0 45 97 -3 96 -3 33 -59z m625 33
c33 -26 39 -36 39 -70 l0 -39 -54 0 c-45 0 -54 3 -59 20 -4 16 -14 20 -52 20
-42 0 -46 -2 -43 -22 3 -20 13 -25 77 -36 49 -9 86 -22 108 -39 31 -24 33 -29
33 -83 0 -56 -1 -58 -47 -94 -45 -35 -49 -36 -129 -36 -77 0 -84 2 -122 33
-36 28 -41 37 -41 75 l-1 42 50 0 c45 0 52 -3 60 -25 8 -21 16 -25 49 -25 23
0 44 6 52 16 20 24 -9 41 -83 49 -46 6 -67 14 -94 37 -31 28 -34 35 -34 88 0
55 2 60 37 89 36 29 42 31 126 31 84 0 91 -2 128 -31z m393 14 c5 -18 45 -171
66 -249 8 -32 16 -43 35 -48 22 -6 25 -12 25 -52 l0 -45 -102 3 -103 3 -3 40
c-3 28 1 43 14 52 28 20 10 43 -36 43 -45 0 -64 -22 -36 -43 12 -9 16 -24 14
-52 l-3 -40 -88 -3 -87 -3 0 46 c0 38 4 47 23 54 18 7 28 28 51 107 24 88 26
100 12 110 -10 7 -16 27 -16 53 l0 41 114 0 c101 0 115 -2 120 -17z m-104
-463 c12 -8 10 -10 -9 -8 -35 4 -37 -18 -1 -30 32 -12 37 -21 18 -40 -14 -14
-54 -16 -63 -2 -4 6 6 7 25 4 23 -5 30 -3 30 10 0 8 -11 18 -24 22 -31 7 -40
30 -18 43 21 13 24 13 42 1z m200 -1 c13 -9 13 -10 0 -8 -48 5 -54 -11 -9 -28
21 -8 30 -17 27 -30 -4 -20 -45 -30 -61 -14 -7 7 -2 10 18 8 36 -3 44 19 10
27 -30 8 -44 34 -24 47 18 11 21 11 39 -2z m-1300 -14 c7 -9 19 -14 27 -11 17
7 17 -8 -1 -23 -10 -9 -15 -8 -20 4 -9 26 -25 17 -29 -17 -3 -25 -4 -22 -5 15
-2 49 6 58 28 32z m65 -24 c0 -22 -4 -43 -8 -47 -4 -4 -7 7 -7 24 0 16 -3 37
-6 46 -4 10 -1 16 8 16 9 0 13 -12 13 -39z m195 20 c5 -11 15 -32 21 -48 8
-23 8 -26 -2 -15 -16 15 -69 16 -69 0 0 -6 -3 -8 -7 -5 -8 8 27 87 38 87 5 0
13 -9 19 -19z m228 7 c31 -31 3 -78 -47 -78 -18 0 -21 6 -21 45 0 43 1 45 28
45 15 0 33 -5 40 -12z m178 -13 c18 -27 39 -23 31 6 -3 11 -1 19 4 19 5 0 9
-21 9 -47 l-1 -48 -29 35 -30 34 0 -26 c0 -15 -4 -30 -10 -33 -6 -4 -10 12
-10 39 0 51 12 58 36 21z m222 18 c-16 -2 -28 -11 -28 -19 0 -8 11 -14 28 -15
l27 -1 -30 -7 c-34 -7 -32 -26 3 -26 12 1 22 -3 22 -7 0 -4 -16 -8 -35 -8 -35
0 -35 0 -35 45 l0 45 38 -1 c30 -2 32 -3 10 -6z m-390 -152 c15 -10 46 -28 70
-40 l43 -22 45 20 c25 11 58 30 74 41 20 14 41 20 68 18 42 -3 48 -18 8 -18
-22 0 -59 -29 -40 -31 5 -1 -2 -4 -16 -8 -14 -4 -24 -13 -23 -18 1 -6 -4 -14
-13 -17 -10 -4 -13 -1 -9 7 4 6 0 4 -9 -7 -8 -10 -20 -15 -27 -10 -8 4 -10 3
-5 -4 9 -15 -36 -26 -80 -19 -35 6 -126 57 -179 101 l-30 25 48 1 c32 0 58 -6
75 -19z m312 -15 c0 -2 -7 -6 -15 -10 -8 -3 -15 -1 -15 4 0 6 7 10 15 10 8 0
15 -2 15 -4z"/>
<path d="M810 1410 l0 -221 73 3 72 3 3 218 2 217 -75 0 -75 0 0 -220z"/>
<path d="M1090 1410 l0 -221 73 3 72 3 3 218 2 217 -75 0 -75 0 0 -220z"/>
<path d="M1496 769 c-9 -46 -8 -49 15 -49 18 0 20 4 14 33 -10 46 -21 53 -29
16z"/>
<path d="M636 405 c-3 -9 1 -18 10 -22 19 -7 26 0 18 21 -8 20 -20 21 -28 1z"/>
<path d="M840 400 c0 -37 24 -50 48 -26 20 20 6 49 -27 54 -18 3 -21 -2 -21
-28z"/>
</g>
</svg>
